# xmcd CD database file
#
# Track frame offsets:
#	150
#	21073
#	45599
#	62768
#	78634
#	99898
#	125413
#	144635
#	166108
#	186631
#	205640
#	226212
#	258331
#
# Disc length: 3644 seconds
#
# Revision: 0
# Processed by: cddbd v1.5.1PL0 Copyright (c) Steve Scherf et al.
# Submitted via: CDex 1.51
#
DISCID=a90e3a0d
DTITLE=cuba - Cuba que linda es Cuba
DYEAR=2004
DGENRE=Salsa
TTITLE0=El Carnaval
TTITLE1=Cuba que linda es Cuba
TTITLE2=Hasta siempre
TTITLE3=Guantanamera
TTITLE4=Yolanda
TTITLE5=Idilio
TTITLE6=Chan chan
TTITLE7=Te estoy queriendo
TTITLE8=No me busques
TTITLE9=Mambo original
TTITLE10=Pintate los labios Maria
TTITLE11=Marieta
TTITLE12=Cha cha cha
EXTD=YEAR: 2004
EXTT0=
EXTT1=
EXTT2=
EXTT3=
EXTT4=
EXTT5=
EXTT6=
EXTT7=
EXTT8=
EXTT9=
EXTT10=
EXTT11=
EXTT12=
PLAYORDER=
